<svg width="60" height="19" viewBox="0 0 60 19" fill="none" xmlns="http://www.w3.org/2000/svg">
<path d="M3.42188 10.2402V11.0195H2.03906V16H1.20117V11.0195H0.298828V10.2402H1.20117V9.16211C1.20117 8.62695 1.33789 8.21289 1.61133 7.91992C1.88867 7.62695 2.27148 7.48047 2.75977 7.48047C2.9043 7.48047 3.04688 7.49609 3.1875 7.52734C3.32812 7.55859 3.43359 7.58984 3.50391 7.62109L3.59766 7.66211V8.44141C3.35938 8.32031 3.09961 8.25977 2.81836 8.25977C2.29883 8.25977 2.03906 8.56055 2.03906 9.16211V10.2402H3.42188ZM6.00586 12.7012L8.22656 12.3379C8.22656 11.9121 8.0918 11.5664 7.82227 11.3008C7.55273 11.0352 7.20703 10.9023 6.78516 10.9023C6.48047 10.9023 6.19336 10.9727 5.92383 11.1133C5.6582 11.25 5.46484 11.3906 5.34375 11.5352L5.16211 11.7402L4.62305 11.2012C4.64648 11.1699 4.67773 11.1309 4.7168 11.084C4.75977 11.0332 4.84961 10.9473 4.98633 10.8262C5.12695 10.7012 5.27344 10.5898 5.42578 10.4922C5.57812 10.3945 5.77734 10.3086 6.02344 10.2344C6.27344 10.1562 6.52734 10.1172 6.78516 10.1172C7.44141 10.1172 7.98438 10.3301 8.41406 10.7559C8.84766 11.1816 9.06445 11.709 9.06445 12.3379V16H8.22656V15.2207C8.21094 15.2441 8.18555 15.2773 8.15039 15.3203C8.11914 15.3594 8.04492 15.4316 7.92773 15.5371C7.81445 15.6387 7.69141 15.7305 7.55859 15.8125C7.42578 15.8906 7.25 15.9609 7.03125 16.0234C6.81641 16.0859 6.59375 16.1172 6.36328 16.1172C5.78906 16.1172 5.30469 15.9473 4.91016 15.6074C4.51953 15.2676 4.32422 14.8789 4.32422 14.4414C4.32422 13.9609 4.46875 13.5742 4.75781 13.2812C5.04688 12.9844 5.46289 12.791 6.00586 12.7012ZM6.36328 15.3379C6.90625 15.3379 7.35156 15.1602 7.69922 14.8047C8.05078 14.4492 8.22656 13.9883 8.22656 13.4219V13.0586L6.24609 13.4219C5.52734 13.5586 5.16602 13.8984 5.16211 14.4414C5.16211 14.6992 5.26758 14.9141 5.47852 15.0859C5.69336 15.2539 5.98828 15.3379 6.36328 15.3379ZM11.4082 15.2441C10.8418 14.6582 10.5586 13.9492 10.5586 13.1172C10.5586 12.2852 10.8418 11.5781 11.4082 10.9961C11.9785 10.4102 12.6543 10.1172 13.4355 10.1172C13.8848 10.1172 14.3027 10.2148 14.6895 10.4102C15.0801 10.6016 15.3594 10.793 15.5273 10.9844L15.7793 11.2598L15.1758 11.8574C15.1602 11.834 15.1367 11.8008 15.1055 11.7578C15.0742 11.7148 15.0039 11.6367 14.8945 11.5234C14.7891 11.4102 14.6738 11.3125 14.5488 11.2305C14.4238 11.1445 14.2617 11.0684 14.0625 11.002C13.8633 10.9355 13.6543 10.9023 13.4355 10.9023C12.8848 10.9023 12.4062 11.1172 12 11.5469C11.5977 11.9727 11.3965 12.498 11.3965 13.123C11.3965 13.7441 11.5977 14.2695 12 14.6992C12.4062 15.125 12.8848 15.3379 13.4355 15.3379C13.7715 15.3379 14.0898 15.2578 14.3906 15.0977C14.6914 14.9375 14.9102 14.7773 15.0469 14.6172L15.2402 14.3828L15.8379 14.9219C15.8145 14.9531 15.7773 14.998 15.7266 15.0566C15.6797 15.1113 15.5781 15.207 15.4219 15.3438C15.2656 15.4766 15.1016 15.5957 14.9297 15.7012C14.7578 15.8027 14.5352 15.8984 14.2617 15.9883C13.9922 16.0742 13.7168 16.1172 13.4355 16.1172C12.6504 16.1172 11.9746 15.8262 11.4082 15.2441ZM22.2539 13.4336L17.5723 13.4219C17.6035 13.9414 17.8164 14.3906 18.2109 14.7695C18.6094 15.1484 19.0762 15.3379 19.6113 15.3379C19.9707 15.3379 20.3047 15.2578 20.6133 15.0977C20.9219 14.9375 21.1406 14.7773 21.2695 14.6172L21.4746 14.3828L22.0137 14.9219C21.9902 14.9531 21.9551 14.998 21.9082 15.0566C21.8652 15.1113 21.7676 15.207 21.6152 15.3438C21.4668 15.4766 21.3047 15.5957 21.1289 15.7012C20.957 15.8027 20.7324 15.8984 20.4551 15.9883C20.1816 16.0742 19.9004 16.1172 19.6113 16.1172C18.8262 16.1172 18.1504 15.8262 17.584 15.2441C17.0176 14.6582 16.7344 13.9492 16.7344 13.1172C16.7344 12.2852 17.0137 11.5781 17.5723 10.9961C18.1348 10.4102 18.7949 10.1172 19.5527 10.1172C20.3379 10.1172 20.9941 10.3906 21.5215 10.9375C22.0488 11.4805 22.3125 12.168 22.3125 13L22.2539 13.4336ZM20.8418 11.4121C20.4863 11.0723 20.0566 10.9023 19.5527 10.9023C19.0488 10.9023 18.6094 11.0801 18.2344 11.4355C17.8594 11.791 17.6387 12.2129 17.5723 12.7012H21.4746C21.4121 12.1816 21.2012 11.752 20.8418 11.4121ZM25.3359 11.5703C24.918 12.0117 24.709 12.5293 24.709 13.123C24.709 13.7129 24.918 14.2305 25.3359 14.6758C25.7578 15.1172 26.2285 15.3379 26.748 15.3379C27.2441 15.3379 27.6875 15.123 28.0781 14.6934C28.4727 14.2598 28.6699 13.7363 28.6699 13.123C28.6699 12.5059 28.4727 11.9824 28.0781 11.5527C27.6875 11.1191 27.2441 10.9023 26.748 10.9023C26.2285 10.9023 25.7578 11.125 25.3359 11.5703ZM24.709 7.59766V11.1426C24.7246 11.1191 24.752 11.084 24.791 11.0371C24.834 10.9863 24.918 10.9023 25.043 10.7852C25.1719 10.668 25.3105 10.5645 25.459 10.4746C25.6074 10.3809 25.7969 10.2988 26.0273 10.2285C26.2617 10.1543 26.502 10.1172 26.748 10.1172C27.4824 10.1172 28.125 10.4121 28.6758 11.002C29.2305 11.5918 29.5078 12.2988 29.5078 13.123C29.5078 13.9434 29.2324 14.6484 28.6816 15.2383C28.1309 15.8242 27.4863 16.1172 26.748 16.1172C26.502 16.1172 26.2637 16.082 26.0332 16.0117C25.8066 15.9414 25.6152 15.8574 25.459 15.7598C25.3027 15.6621 25.166 15.5645 25.0488 15.4668C24.9355 15.3652 24.8516 15.2793 24.7969 15.209L24.709 15.0977V16H23.8711V7.59766H24.709ZM35.0039 14.6992C35.418 14.2695 35.625 13.7441 35.625 13.123C35.625 12.498 35.418 11.9727 35.0039 11.5469C34.5938 11.1172 34.0996 10.9023 33.5215 10.9023C32.9473 10.9023 32.4531 11.1172 32.0391 11.5469C31.6289 11.9727 31.4238 12.4961 31.4238 13.1172C31.4238 13.7344 31.6289 14.2598 32.0391 14.6934C32.4531 15.123 32.9473 15.3379 33.5215 15.3379C34.0996 15.3379 34.5938 15.125 35.0039 14.6992ZM31.4414 15.25C30.8711 14.6719 30.5859 13.9629 30.5859 13.123C30.5859 12.2793 30.8711 11.5684 31.4414 10.9902C32.0156 10.4082 32.7109 10.1172 33.5273 10.1172C34.3438 10.1172 35.0371 10.4082 35.6074 10.9902C36.1777 11.5684 36.4629 12.2793 36.4629 13.123C36.4629 13.9629 36.1777 14.6719 35.6074 15.25C35.0371 15.8281 34.3438 16.1172 33.5273 16.1172C32.7109 16.1172 32.0156 15.8281 31.4414 15.25ZM41.9648 14.6992C42.3789 14.2695 42.5859 13.7441 42.5859 13.123C42.5859 12.498 42.3789 11.9727 41.9648 11.5469C41.5547 11.1172 41.0605 10.9023 40.4824 10.9023C39.9082 10.9023 39.4141 11.1172 39 11.5469C38.5898 11.9727 38.3848 12.4961 38.3848 13.1172C38.3848 13.7344 38.5898 14.2598 39 14.6934C39.4141 15.123 39.9082 15.3379 40.4824 15.3379C41.0605 15.3379 41.5547 15.125 41.9648 14.6992ZM38.4023 15.25C37.832 14.6719 37.5469 13.9629 37.5469 13.123C37.5469 12.2793 37.832 11.5684 38.4023 10.9902C38.9766 10.4082 39.6719 10.1172 40.4883 10.1172C41.3047 10.1172 41.998 10.4082 42.5684 10.9902C43.1387 11.5684 43.4238 12.2793 43.4238 13.123C43.4238 13.9629 43.1387 14.6719 42.5684 15.25C41.998 15.8281 41.3047 16.1172 40.4883 16.1172C39.6719 16.1172 38.9766 15.8281 38.4023 15.25ZM45.8262 14.3828V16H44.9883V7.59766H45.8262V13.2988L48.709 10.2402H49.7285L47.5078 12.5781L49.9688 16H49.0078L46.9688 13.1816L45.8262 14.3828Z" fill="#1057E0"/>
<path d="M59.157 0.999975C59.157 0.723838 58.9331 0.499984 58.6569 0.499984L54.1569 0.499984C53.8807 0.499984 53.6569 0.723838 53.6569 0.999976C53.6569 1.27611 53.8807 1.49997 54.1569 1.49997L58.1569 1.49997L58.1569 5.4999C58.1569 5.77604 58.3808 5.99989 58.6569 5.99989C58.9331 5.99989 59.157 5.77604 59.157 5.4999L59.157 0.999975ZM53.3536 7.01029L59.0105 1.35352L58.3034 0.646428L52.6464 6.30319L53.3536 7.01029Z" fill="#1057E0"/>
</svg>
