<svg width="62" height="19" viewBox="0 0 62 19" fill="none" xmlns="http://www.w3.org/2000/svg">
<path d="M0.902344 16V10.2402H1.74023V16H0.902344ZM0.931641 8.70508C0.830078 8.59961 0.779297 8.4707 0.779297 8.31836C0.779297 8.16602 0.830078 8.03906 0.931641 7.9375C1.03711 7.83203 1.16602 7.7793 1.31836 7.7793C1.4707 7.7793 1.59766 7.83203 1.69922 7.9375C1.80469 8.03906 1.85742 8.16602 1.85742 8.31836C1.85742 8.4707 1.80469 8.59961 1.69922 8.70508C1.59766 8.80664 1.4707 8.85742 1.31836 8.85742C1.16602 8.85742 1.03711 8.80664 0.931641 8.70508ZM4.50586 10.2402V11.0781C4.52148 11.0547 4.54492 11.0215 4.57617 10.9785C4.60742 10.9355 4.68164 10.8574 4.79883 10.7441C4.91602 10.6309 5.03906 10.5332 5.16797 10.4512C5.30078 10.3652 5.47461 10.2891 5.68945 10.2227C5.9082 10.1523 6.13281 10.1172 6.36328 10.1172C7.05859 10.1172 7.62305 10.3418 8.05664 10.791C8.49023 11.2402 8.70703 11.8359 8.70703 12.5781V16H7.86328V12.5781C7.86328 12.0742 7.7168 11.6699 7.42383 11.3652C7.13477 11.0566 6.76172 10.9023 6.30469 10.9023C5.79297 10.9023 5.36523 11.082 5.02148 11.4414C4.67773 11.8008 4.50586 12.2598 4.50586 12.8184V16H3.66797V10.2402H4.50586ZM14.1094 10.9023L13.5059 11.5C13.4746 11.4531 13.4277 11.3984 13.3652 11.3359C13.3066 11.2695 13.168 11.1816 12.9492 11.0723C12.7305 10.959 12.4961 10.9023 12.2461 10.9023C11.9258 10.9023 11.666 10.9863 11.4668 11.1543C11.2676 11.3223 11.168 11.5176 11.168 11.7402C11.168 11.9707 11.2754 12.1562 11.4902 12.2969C11.7051 12.4375 11.9648 12.5508 12.2695 12.6367C12.5742 12.7188 12.8789 12.8145 13.1836 12.9238C13.4883 13.0293 13.748 13.2051 13.9629 13.4512C14.1777 13.6934 14.2852 14.0039 14.2852 14.3828C14.2852 14.8789 14.0957 15.293 13.7168 15.625C13.3379 15.9531 12.8281 16.1172 12.1875 16.1172C11.9141 16.1172 11.6562 16.082 11.4141 16.0117C11.1758 15.9414 10.9785 15.8574 10.8223 15.7598C10.666 15.6621 10.5293 15.5645 10.4121 15.4668C10.2988 15.3652 10.2148 15.2793 10.1602 15.209L10.084 15.0977L10.6875 14.5C10.7031 14.5234 10.7246 14.5547 10.752 14.5938C10.7793 14.6289 10.8398 14.6953 10.9336 14.793C11.0312 14.8867 11.1348 14.9727 11.2441 15.0508C11.3535 15.125 11.4941 15.1914 11.666 15.25C11.8379 15.3086 12.0117 15.3379 12.1875 15.3379C12.5938 15.3379 12.9043 15.248 13.1191 15.0684C13.3379 14.8887 13.4473 14.6602 13.4473 14.3828C13.4473 14.1445 13.3379 13.9512 13.1191 13.8027C12.9043 13.6504 12.6445 13.5312 12.3398 13.4453C12.0391 13.3555 11.7363 13.2578 11.4316 13.1523C11.127 13.043 10.8652 12.873 10.6465 12.6426C10.4316 12.4082 10.3242 12.1074 10.3242 11.7402C10.3242 11.3066 10.5059 10.9277 10.8691 10.6035C11.2363 10.2793 11.6953 10.1172 12.2461 10.1172C12.375 10.1172 12.4883 10.123 12.5859 10.1348C12.6875 10.1426 12.7578 10.1543 12.7969 10.1699L12.8438 10.1816C12.7227 9.98242 12.6641 9.74219 12.668 9.46094C12.668 8.92578 12.8867 8.46289 13.3242 8.07227C13.7656 7.67773 14.2871 7.48047 14.8887 7.48047C15.5137 7.48047 16.0293 7.67773 16.4355 8.07227C16.8418 8.46289 17.0449 8.94531 17.0449 9.51953V10.2402H18.3047V11.0195H17.0449V14.4414C17.0449 15.043 17.3047 15.3418 17.8242 15.3379C17.9531 15.3379 18.082 15.3223 18.2109 15.291C18.3398 15.2598 18.4395 15.2324 18.5098 15.209L18.6094 15.1621V15.9414C18.3711 16.0625 18.0977 16.1211 17.7891 16.1172C17.293 16.1172 16.9043 15.9727 16.623 15.6836C16.3457 15.3906 16.207 14.9766 16.207 14.4414V11.0195H15.1289V10.2402H16.207V9.51953C16.207 9.16016 16.082 8.86133 15.832 8.62305C15.5859 8.38086 15.2715 8.25977 14.8887 8.25977C14.4746 8.25977 14.1406 8.38281 13.8867 8.62891C13.6328 8.87109 13.5059 9.1875 13.5059 9.57812C13.5059 9.82422 13.5547 10.0586 13.6523 10.2812C13.7539 10.5 13.8535 10.6582 13.9512 10.7559L14.1094 10.9023ZM21.0645 12.7012L23.2852 12.3379C23.2852 11.9121 23.1504 11.5664 22.8809 11.3008C22.6113 11.0352 22.2656 10.9023 21.8438 10.9023C21.5391 10.9023 21.252 10.9727 20.9824 11.1133C20.7168 11.25 20.5234 11.3906 20.4023 11.5352L20.2207 11.7402L19.6816 11.2012C19.7051 11.1699 19.7363 11.1309 19.7754 11.084C19.8184 11.0332 19.9082 10.9473 20.0449 10.8262C20.1855 10.7012 20.332 10.5898 20.4844 10.4922C20.6367 10.3945 20.8359 10.3086 21.082 10.2344C21.332 10.1562 21.5859 10.1172 21.8438 10.1172C22.5 10.1172 23.043 10.3301 23.4727 10.7559C23.9062 11.1816 24.123 11.709 24.123 12.3379V16H23.2852V15.2207C23.2695 15.2441 23.2441 15.2773 23.209 15.3203C23.1777 15.3594 23.1035 15.4316 22.9863 15.5371C22.873 15.6387 22.75 15.7305 22.6172 15.8125C22.4844 15.8906 22.3086 15.9609 22.0898 16.0234C21.875 16.0859 21.6523 16.1172 21.4219 16.1172C20.8477 16.1172 20.3633 15.9473 19.9688 15.6074C19.5781 15.2676 19.3828 14.8789 19.3828 14.4414C19.3828 13.9609 19.5273 13.5742 19.8164 13.2812C20.1055 12.9844 20.5215 12.791 21.0645 12.7012ZM21.4219 15.3379C21.9648 15.3379 22.4102 15.1602 22.7578 14.8047C23.1094 14.4492 23.2852 13.9883 23.2852 13.4219V13.0586L21.3047 13.4219C20.5859 13.5586 20.2246 13.8984 20.2207 14.4414C20.2207 14.6992 20.3262 14.9141 20.5371 15.0859C20.752 15.2539 21.0469 15.3379 21.4219 15.3379ZM30.2344 15.6426V14.9219C30.2188 14.9453 30.1953 14.9785 30.1641 15.0215C30.1328 15.0645 30.0586 15.1426 29.9414 15.2559C29.8281 15.3691 29.7031 15.4688 29.5664 15.5547C29.4297 15.6367 29.248 15.7129 29.0215 15.7832C28.7988 15.8496 28.5645 15.8828 28.3184 15.8828C27.5918 15.8828 26.959 15.6035 26.4199 15.0449C25.8848 14.4824 25.6172 13.8008 25.6172 13C25.6172 12.1992 25.8848 11.5195 26.4199 10.9609C26.9551 10.3984 27.5879 10.1172 28.3184 10.1172C28.5645 10.1172 28.7969 10.1504 29.0156 10.2168C29.2383 10.2793 29.4219 10.3594 29.5664 10.457C29.7109 10.5508 29.834 10.6465 29.9355 10.7441C30.041 10.8418 30.1172 10.9219 30.1641 10.9844L30.2344 11.0781V10.2402H31.0781V15.6426C31.0781 16.4512 30.8027 17.1328 30.252 17.6875C29.7051 18.2422 29.0391 18.5195 28.2539 18.5195C27.9492 18.5195 27.6582 18.4766 27.3809 18.3906C27.1074 18.3086 26.8828 18.209 26.707 18.0918C26.5312 17.9785 26.375 17.8633 26.2383 17.7461C26.1055 17.6289 26.0098 17.5273 25.9512 17.4414L25.8574 17.3184L26.3965 16.7793C26.4121 16.8027 26.4375 16.8359 26.4727 16.8789C26.5117 16.9258 26.5898 17.0039 26.707 17.1133C26.8281 17.2266 26.9551 17.3242 27.0879 17.4062C27.2207 17.4922 27.3926 17.5684 27.6035 17.6348C27.8145 17.7051 28.0312 17.7402 28.2539 17.7402C28.7969 17.7402 29.2617 17.5391 29.6484 17.1367C30.0391 16.7344 30.2344 16.2363 30.2344 15.6426ZM27.0176 11.5117C26.6426 11.918 26.4551 12.4141 26.4551 13C26.4551 13.5859 26.6426 14.082 27.0176 14.4883C27.3965 14.8945 27.8301 15.0977 28.3184 15.0977C28.8379 15.0977 29.2871 14.8965 29.666 14.4941C30.0449 14.0918 30.2344 13.5938 30.2344 13C30.2344 12.4062 30.0449 11.9082 29.666 11.5059C29.2871 11.1035 28.8379 10.9023 28.3184 10.9023C27.8301 10.9023 27.3965 11.1055 27.0176 11.5117ZM36 10.1172V10.9609H35.6367C35.1406 10.9609 34.7168 11.1328 34.3652 11.4766C34.0137 11.8203 33.8379 12.2676 33.8379 12.8184V16H33V10.2402H33.8379V11.0195C33.8535 10.9961 33.877 10.9648 33.9082 10.9258C33.9395 10.8828 34.0137 10.8105 34.1309 10.709C34.248 10.6035 34.373 10.5117 34.5059 10.4336C34.6426 10.3516 34.8223 10.2793 35.0449 10.2168C35.2715 10.1504 35.5098 10.1172 35.7598 10.1172H36ZM38.3965 12.7012L40.6172 12.3379C40.6172 11.9121 40.4824 11.5664 40.2129 11.3008C39.9434 11.0352 39.5977 10.9023 39.1758 10.9023C38.8711 10.9023 38.584 10.9727 38.3145 11.1133C38.0488 11.25 37.8555 11.3906 37.7344 11.5352L37.5527 11.7402L37.0137 11.2012C37.0371 11.1699 37.0684 11.1309 37.1074 11.084C37.1504 11.0332 37.2402 10.9473 37.377 10.8262C37.5176 10.7012 37.6641 10.5898 37.8164 10.4922C37.9688 10.3945 38.168 10.3086 38.4141 10.2344C38.6641 10.1562 38.918 10.1172 39.1758 10.1172C39.832 10.1172 40.375 10.3301 40.8047 10.7559C41.2383 11.1816 41.4551 11.709 41.4551 12.3379V16H40.6172V15.2207C40.6016 15.2441 40.5762 15.2773 40.541 15.3203C40.5098 15.3594 40.4355 15.4316 40.3184 15.5371C40.2051 15.6387 40.082 15.7305 39.9492 15.8125C39.8164 15.8906 39.6406 15.9609 39.4219 16.0234C39.207 16.0859 38.9844 16.1172 38.7539 16.1172C38.1797 16.1172 37.6953 15.9473 37.3008 15.6074C36.9102 15.2676 36.7148 14.8789 36.7148 14.4414C36.7148 13.9609 36.8594 13.5742 37.1484 13.2812C37.4375 12.9844 37.8535 12.791 38.3965 12.7012ZM38.7539 15.3379C39.2969 15.3379 39.7422 15.1602 40.0898 14.8047C40.4414 14.4492 40.6172 13.9883 40.6172 13.4219V13.0586L38.6367 13.4219C37.918 13.5586 37.5566 13.8984 37.5527 14.4414C37.5527 14.6992 37.6582 14.9141 37.8691 15.0859C38.084 15.2539 38.3789 15.3379 38.7539 15.3379ZM51.0469 16V12.5781C51.0469 12.043 50.9141 11.6309 50.6484 11.3418C50.3867 11.0488 50.041 10.9023 49.6113 10.9023C49.1699 10.9023 48.7988 11.0762 48.498 11.4238C48.1973 11.7715 48.0469 12.2363 48.0469 12.8184V16H47.209V12.5781C47.209 12.0508 47.0762 11.6406 46.8105 11.3477C46.5488 11.0508 46.2012 10.9023 45.7676 10.9023C45.3262 10.9023 44.9551 11.0762 44.6543 11.4238C44.3574 11.7715 44.209 12.2363 44.209 12.8184V16H43.3711V10.2402H44.209V10.9609C44.2246 10.9375 44.2441 10.9082 44.2676 10.873C44.291 10.834 44.3496 10.7676 44.4434 10.6738C44.541 10.5762 44.6484 10.4902 44.7656 10.416C44.8828 10.3379 45.0352 10.2695 45.2227 10.2109C45.4102 10.1484 45.6113 10.1172 45.8262 10.1172C46.084 10.1172 46.3242 10.1543 46.5469 10.2285C46.7734 10.2988 46.9512 10.3828 47.0801 10.4805C47.2129 10.5742 47.3262 10.6719 47.4199 10.7734C47.5176 10.875 47.5879 10.9609 47.6309 11.0312L47.6895 11.1426C47.7051 11.1191 47.7266 11.084 47.7539 11.0371C47.7812 10.9863 47.8535 10.9023 47.9707 10.7852C48.0879 10.668 48.2129 10.5645 48.3457 10.4746C48.4824 10.3809 48.668 10.2988 48.9023 10.2285C49.1406 10.1543 49.3965 10.1172 49.6699 10.1172C50.3262 10.1172 50.8594 10.334 51.2695 10.7676C51.6836 11.2012 51.8906 11.8047 51.8906 12.5781V16H51.0469Z" fill="#1057E0"/>
<path d="M61.1569 0.999945C61.1569 0.723806 60.9331 0.49995 60.6569 0.49995L56.1569 0.499951C55.8807 0.499951 55.6569 0.723806 55.6569 0.999945C55.6569 1.27608 55.8807 1.49994 56.1569 1.49994L60.1569 1.49994L60.1569 5.4999C60.1569 5.77604 60.3808 5.99989 60.6569 5.99989C60.9331 5.99989 61.1569 5.77604 61.1569 5.4999L61.1569 0.999945ZM55.3536 7.01029L61.0105 1.35349L60.3034 0.646396L54.6464 6.30319L55.3536 7.01029Z" fill="#1057E0"/>
</svg>
