<svg width="197" height="36" viewBox="0 0 197 36" fill="none" xmlns="http://www.w3.org/2000/svg">
<g clip-path="url(#clip0)">
<path d="M36.7885 35.9999H34.6641V2.33758H29.1199V21.6623H28.0318C10.622 21.6623 7.82404 6.54537 7.35771 2.33758H2.12441V35.9999H0V0.155762H9.37849V1.19472C9.37849 1.922 10.0003 18.7532 26.9437 19.4285V0.20771H36.7885V35.9999Z" fill="black"/>
<path d="M52.5401 6.85706L57.8252 0.155762H59.6905V13.922H57.5143V3.94797L52.4883 10.2337L47.5659 3.94797V13.9739H45.3896V0.20771H47.255L52.5401 6.85706Z" fill="black"/>
<path d="M63.5767 13.974L69.2763 0.207764H71.4525L77.1521 13.974H74.9241L73.4733 10.3376H67.411L65.9601 13.974H63.5767ZM70.3644 2.64932L68.0845 8.36361H72.5924L70.3644 2.64932Z" fill="black"/>
<path d="M86.7897 0C87.4633 0 88.1368 0.103896 88.8104 0.25974C89.4322 0.467532 89.9504 0.675325 90.4167 0.935065C90.883 1.19481 91.1939 1.45455 91.5048 1.71429C91.8157 1.97403 92.023 2.18182 92.1784 2.38961L92.3857 2.64935L91.0385 4.05195C90.9867 4 90.9348 3.94805 90.883 3.84416C90.8312 3.74026 90.624 3.58442 90.3649 3.32468C90.1058 3.06494 89.8467 2.85714 89.5358 2.7013C89.225 2.54545 88.8623 2.33766 88.3441 2.23377C87.8778 2.07792 87.3596 2.02597 86.8415 2.02597C85.4425 2.02597 84.1989 2.54545 83.2144 3.53247C82.23 4.51948 81.7118 5.71429 81.7118 7.16883C81.7118 8.62338 82.23 9.81818 83.2144 10.8052C84.1989 11.7922 85.3907 12.3117 86.8415 12.3117C87.3596 12.3117 87.8778 12.2597 88.3959 12.1039C88.9141 11.9481 89.2768 11.7922 89.5877 11.5844C89.8985 11.3766 90.2094 11.1688 90.4167 10.961C90.624 10.7532 90.8312 10.5974 90.9867 10.4416L91.1421 10.1818L92.5411 11.5844C92.4893 11.6364 92.4375 11.7403 92.282 11.8961C92.1784 12 91.9193 12.2597 91.6084 12.5714C91.2457 12.8831 90.883 13.1429 90.4685 13.4026C90.054 13.6623 89.5358 13.8701 88.8623 14.0779C88.1887 14.2857 87.5151 14.3896 86.8415 14.3896C84.7689 14.3896 83.059 13.7143 81.66 12.3117C80.261 10.961 79.5874 9.24675 79.5874 7.27273C79.5874 5.2987 80.261 3.63636 81.66 2.23377C83.0072 0.675325 84.7689 0 86.7897 0Z" fill="black"/>
<path d="M95.6499 0.207764H106.013V2.18179H101.919V13.974H99.7433V2.18179H95.6499V0.207764Z" fill="black"/>
<path d="M112.075 12H119.796V13.974H109.899V0.207764H119.588V2.18179H112.023V5.81815H117.982V7.79218H112.023V12H112.075Z" fill="black"/>
<path d="M123.993 0.207764H129.485C130.78 0.207764 131.869 0.623348 132.749 1.50646C133.63 2.38958 134.097 3.42854 134.097 4.62335C134.097 5.81815 133.63 6.90906 132.749 7.74023C131.869 8.5714 130.78 9.03893 129.485 9.03893H126.169V13.974H123.993V0.207764ZM129.485 2.18179H126.169V7.11685H129.485C130.159 7.11685 130.729 6.85711 131.195 6.38958C131.661 5.92205 131.92 5.35062 131.92 4.62335C131.92 3.89608 131.661 3.32465 131.195 2.85711C130.729 2.38958 130.159 2.18179 129.485 2.18179Z" fill="black"/>
<path d="M145.133 0C145.807 0 146.481 0.103896 147.154 0.25974C147.828 0.415584 148.294 0.675325 148.76 0.935065C149.175 1.19481 149.538 1.45455 149.849 1.71429C150.159 1.97403 150.367 2.18182 150.522 2.38961L150.729 2.64935L149.382 4.05195C149.33 4 149.279 3.94805 149.227 3.84416C149.175 3.74026 148.968 3.58442 148.709 3.32468C148.45 3.06494 148.19 2.85714 147.88 2.7013C147.569 2.54545 147.206 2.33766 146.688 2.23377C146.222 2.07792 145.703 2.02597 145.185 2.02597C143.786 2.02597 142.543 2.54545 141.558 3.53247C140.574 4.51948 140.056 5.71429 140.056 7.16883C140.056 8.62338 140.574 9.81818 141.558 10.8052C142.543 11.7922 143.734 12.3117 145.185 12.3117C145.703 12.3117 146.222 12.2597 146.74 12.1039C147.206 11.9481 147.621 11.7922 147.931 11.5844C148.242 11.3766 148.553 11.1688 148.76 10.961C149.02 10.7532 149.175 10.5974 149.33 10.4416L149.486 10.1818L150.885 11.5844C150.833 11.6364 150.781 11.7403 150.626 11.8961C150.522 12 150.263 12.2597 149.952 12.5714C149.589 12.8831 149.227 13.1429 148.812 13.4026C148.398 13.6623 147.88 13.8701 147.206 14.0779C146.532 14.2857 145.859 14.3896 145.185 14.3896C143.113 14.3896 141.403 13.7143 140.004 12.3117C138.605 10.9091 137.931 9.24675 137.931 7.27273C137.931 5.2987 138.605 3.63636 140.004 2.23377C141.403 0.831169 143.113 0 145.133 0Z" fill="black"/>
<path d="M157.051 0.207764V6.90906L163.217 0.207764H165.963L160.678 5.92205L166.377 13.974H163.735L159.227 7.48049L157.051 9.81815V13.922H154.926V0.207764H157.051Z" fill="black"/>
<path d="M169.435 13.974L175.134 0.207764H177.31L183.01 13.974H180.782L179.331 10.3376H173.269L171.818 13.974H169.435ZM176.222 2.64932L173.942 8.36361H178.45L176.222 2.64932Z" fill="black"/>
<path d="M197 0.207764V13.974H194.824V8.62335H191.715L188.761 13.922H186.43L189.59 8.41556C189.539 8.41556 189.435 8.36361 189.28 8.31166C189.176 8.25971 188.917 8.10387 188.606 7.89608C188.295 7.68828 188.036 7.42854 187.777 7.1688C187.518 6.90906 187.311 6.49348 187.103 6.02595C186.896 5.55841 186.792 4.98698 186.792 4.4675C186.792 3.2727 187.207 2.28569 188.036 1.45452C188.865 0.623348 189.901 0.207764 191.197 0.207764H197ZM189.59 2.80517C189.176 3.22075 188.969 3.79218 188.969 4.41556C188.969 5.03893 189.176 5.61036 189.59 6.02595C190.005 6.44153 190.575 6.64932 191.197 6.64932H194.824V2.18179H191.197C190.575 2.18179 190.057 2.38958 189.59 2.80517Z" fill="black"/>
<path d="M56.478 22.0779V35.8441H54.3018V24.0519H47.5659V35.8441H45.3896V22.0779H56.478Z" fill="black"/>
<path d="M61.7632 22.0779H67.2556C68.5509 22.0779 69.639 22.4935 70.5199 23.3766C71.4007 24.2597 71.8671 25.2987 71.8671 26.4935C71.8671 27.7402 71.4007 28.7792 70.5199 29.6103C69.639 30.4415 68.5509 30.909 67.2556 30.909H63.9394V35.8441H61.7632V22.0779ZM67.2556 24.0519H63.9394V28.987H67.2556C67.9292 28.987 68.4991 28.7272 68.9654 28.2597C69.4318 27.7922 69.6909 27.2207 69.6909 26.4935C69.6909 25.8181 69.4318 25.1948 68.9654 24.7272C68.4991 24.2597 67.9292 24.0519 67.2556 24.0519Z" fill="black"/>
<path d="M77.722 33.974C76.323 32.6233 75.6494 30.909 75.6494 28.935C75.6494 26.961 76.323 25.2986 77.722 23.896C79.121 22.5454 80.8309 21.8181 82.9035 21.8181C84.9761 21.8181 86.686 22.4934 88.085 23.896C89.484 25.2986 90.1576 26.961 90.1576 28.935C90.1576 30.909 89.484 32.5714 88.085 33.974C86.686 35.3246 84.9761 36.0519 82.9035 36.0519C80.8309 36.0519 79.121 35.3246 77.722 33.974ZM79.2765 25.2986C78.292 26.2856 77.7738 27.4805 77.7738 28.935C77.7738 30.3895 78.292 31.5844 79.2765 32.5714C80.2609 33.5584 81.4527 34.0779 82.9035 34.0779C84.3543 34.0779 85.546 33.5584 86.5305 32.5714C87.515 31.5844 88.0332 30.3895 88.0332 28.935C88.0332 27.4805 87.515 26.2856 86.5305 25.2986C85.546 24.3116 84.3543 23.7921 82.9035 23.7921C81.4527 23.7921 80.2609 24.3116 79.2765 25.2986Z" fill="black"/>
<path d="M96.79 33.8701H104.51V35.8441H94.6138V22.0779H104.303V24.0519H96.7382V27.6883H102.697V29.6103H96.7382V33.8701H96.79Z" fill="black"/>
<path d="M110.832 22.0779V28.7792L116.998 22.0779H119.744L114.459 27.7922L120.158 35.8441H117.516L112.956 29.3506L110.78 31.6883V35.8441H108.604V22.0779H110.832Z" fill="black"/>
<path d="M123.008 22.0779H133.371V24.0519H129.278V35.8441H127.102V24.0519H123.008V22.0779Z" fill="black"/>
<path d="M138.035 33.974C136.636 32.6233 135.962 30.909 135.962 28.935C135.962 26.961 136.636 25.2986 138.035 23.896C139.434 22.5454 141.143 21.8181 143.216 21.8181C145.289 21.8181 146.998 22.4934 148.397 23.896C149.796 25.2986 150.47 26.961 150.47 28.935C150.47 30.909 149.796 32.5714 148.397 33.974C146.998 35.3246 145.289 36.0519 143.216 36.0519C141.143 36.0519 139.434 35.3246 138.035 33.974ZM139.589 25.2986C138.604 26.2856 138.086 27.4805 138.086 28.935C138.086 30.3895 138.604 31.5844 139.589 32.5714C140.573 33.5584 141.765 34.0779 143.216 34.0779C144.667 34.0779 145.859 33.5584 146.843 32.5714C147.828 31.5844 148.346 30.3895 148.346 28.935C148.346 27.4805 147.828 26.2856 146.843 25.2986C145.859 24.3116 144.667 23.7921 143.216 23.7921C141.765 23.8441 140.573 24.3116 139.589 25.2986Z" fill="black"/>
<path d="M160.781 35.8441H154.926V22.0779H160.522C161.61 22.0779 162.595 22.4415 163.372 23.1688C164.149 23.8961 164.564 24.7272 164.564 25.7142C164.564 26.2857 164.46 26.7532 164.201 27.2207C163.994 27.6883 163.735 28 163.528 28.1558L163.165 28.4155C163.217 28.4155 163.268 28.4675 163.372 28.5194C163.476 28.5714 163.631 28.7272 163.89 28.935C164.149 29.1428 164.357 29.3506 164.512 29.6103C164.667 29.8701 164.875 30.1818 164.978 30.5454C165.134 30.909 165.186 31.3246 165.186 31.7402C165.186 32.8311 164.771 33.7662 163.942 34.5974C163.113 35.4285 162.025 35.8441 160.781 35.8441ZM160.47 23.948H157.051V27.6883H160.47C160.989 27.6883 161.455 27.5324 161.818 27.1688C162.18 26.8052 162.336 26.3896 162.336 25.8181C162.336 25.2987 162.18 24.8311 161.818 24.4675C161.455 24.1039 161.04 23.948 160.47 23.948ZM157.051 33.974H160.781C161.403 33.974 161.973 33.7662 162.388 33.3506C162.802 32.935 163.061 32.3636 163.061 31.7402C163.061 31.1168 162.854 30.5454 162.439 30.1298C162.025 29.7142 161.455 29.4545 160.833 29.4545H157.103V33.974H157.051Z" fill="black"/>
</g>
<defs>
<clipPath id="clip0">
<rect width="197" height="36" fill="white"/>
</clipPath>
</defs>
</svg>
